<svg width="30.000000" height="30.000000" viewBox="0 0 30 30" fill="none" xmlns="http://www.w3.org/2000/svg" xmlns:xlink="http://www.w3.org/1999/xlink">
	<desc>
			Created with Pixso.
	</desc>
	<defs/>
	<path d="M27.5887 0L2.41125 0C1.07999 0 0 1.08 0 2.41125L0 27.5887C0 28.92 1.07999 30 2.41125 30L27.5887 30C28.92 30 30 28.92 30 27.5887L30 2.41125C30 1.08 28.92 0 27.5887 0ZM27.5887 27.6C10.7963 27.5963 2.39999 27.5925 2.39999 27.5887C2.40375 10.7962 2.4075 2.39999 2.41125 2.39999C19.2037 2.40375 27.6 2.4075 27.6 2.41125C27.5963 19.2038 27.5925 27.6 27.5887 27.6ZM4.44751 11.2462L8.89874 11.2462L8.89874 25.5638L4.44751 25.5638L4.44751 11.2462ZM6.67499 9.28876C8.09625 9.28876 9.255 8.13374 9.255 6.70876C9.255 6.36993 9.18826 6.03445 9.05862 5.72142C8.92896 5.4084 8.73892 5.12399 8.49933 4.88441C8.25977 4.64484 7.97534 4.4548 7.66232 4.32513C7.3493 4.19548 7.01382 4.12875 6.67499 4.12875C6.33618 4.12875 6.0007 4.19548 5.68768 4.32513C5.37466 4.4548 5.09024 4.64484 4.85068 4.88441C4.61108 5.12399 4.42105 5.4084 4.29138 5.72142C4.16174 6.03445 4.095 6.36993 4.095 6.70876C4.09125 8.13374 5.24625 9.28876 6.67499 9.28876ZM16.1363 18.48C16.1363 16.6125 16.4925 14.805 18.8062 14.805C21.0862 14.805 21.12 16.9388 21.12 18.6L21.12 25.5638L25.5675 25.5638L25.5675 17.7112C25.5675 13.8562 24.735 10.89 20.2313 10.89C18.0675 10.89 16.6162 12.0788 16.02 13.2038L15.96 13.2038L15.96 11.2462L11.6888 11.2462L11.6888 25.5638L16.1363 25.5638L16.1363 18.48Z" fill="#F8F8F8" fill-opacity="1.000000" fill-rule="nonzero"/>
</svg>
