<svg width="30.000000" height="30.000000" viewBox="0 0 30 30" fill="none" xmlns="http://www.w3.org/2000/svg" xmlns:xlink="http://www.w3.org/1999/xlink">
	<desc>
			Created with Pixso.
	</desc>
	<defs/>
	<path d="M8.81592 0.0899963C10.4155 0.0163574 10.9255 0 15 0C19.0745 0 19.5845 0.0177307 21.1827 0.0899963C22.7809 0.162277 23.8718 0.417267 24.8264 0.786819C25.8259 1.16455 26.7327 1.755 27.4827 2.51863C28.2463 3.26727 28.8354 4.17273 29.2118 5.17363C29.5827 6.12819 29.8364 7.21909 29.91 8.81454C29.9836 10.4168 30 10.9268 30 15C30 19.0745 29.9823 19.5845 29.91 21.1841C29.8377 22.7795 29.5827 23.8705 29.2118 24.825C28.8354 25.826 28.2454 26.733 27.4827 27.4827C26.7327 28.2464 25.8259 28.8354 24.8264 29.2118C23.8718 29.5827 22.7809 29.8364 21.1854 29.91C19.5845 29.9836 19.0745 30 15 30C10.9255 30 10.4155 29.9823 8.81592 29.91C7.22046 29.8377 6.12952 29.5827 5.17499 29.2118C4.17401 28.8354 3.26703 28.2453 2.51727 27.4827C1.75415 26.7336 1.16364 25.8271 0.786804 24.8264C0.417297 23.8718 0.163635 22.7809 0.0900269 21.1855C0.0163574 19.5832 0 19.0732 0 15C0 10.9255 0.0177002 10.4155 0.0900269 8.81728C0.162292 7.21909 0.417297 6.12819 0.786804 5.17363C1.16418 4.17284 1.75519 3.26634 2.51862 2.51727C3.26733 1.75432 4.1734 1.16379 5.17365 0.786819C6.12817 0.417267 7.21912 0.163635 8.81458 0.0899963L8.81592 0.0899963ZM21.0613 2.78999C19.4796 2.71773 19.005 2.70273 15 2.70273C10.995 2.70273 10.5204 2.71773 8.93866 2.78999C7.47546 2.85681 6.68182 3.10091 6.15271 3.30682C5.45319 3.57954 4.9527 3.90273 4.42773 4.42773C3.93005 4.9119 3.54706 5.5013 3.30682 6.15273C3.10089 6.68182 2.85681 7.47545 2.78998 8.93863C2.71771 10.5204 2.7027 10.995 2.7027 15C2.7027 19.005 2.71771 19.4796 2.78998 21.0614C2.85681 22.5246 3.10089 23.3182 3.30682 23.8473C3.54681 24.4977 3.92999 25.0882 4.42773 25.5723C4.9118 26.07 5.50226 26.4532 6.15271 26.6932C6.68182 26.8991 7.47546 27.1432 8.93866 27.21C10.5204 27.2823 10.9937 27.2973 15 27.2973C19.0063 27.2973 19.4796 27.2823 21.0613 27.21C22.5245 27.1432 23.3182 26.8991 23.8473 26.6932C24.5468 26.4205 25.0472 26.0973 25.5723 25.5723C26.07 25.0882 26.4532 24.4977 26.6932 23.8473C26.8991 23.3182 27.1432 22.5246 27.21 21.0614C27.2823 19.4796 27.2972 19.005 27.2972 15C27.2972 10.995 27.2823 10.5204 27.21 8.93863C27.1432 7.47545 26.8991 6.68182 26.6932 6.15273C26.4205 5.45319 26.0973 4.95273 25.5723 4.42773C25.0881 3.9301 24.4987 3.5471 23.8473 3.30682C23.3182 3.10091 22.5245 2.85681 21.0613 2.78999ZM13.0841 19.6241C14.1541 20.0695 15.3455 20.1296 16.4549 19.7942C17.5643 19.4587 18.5228 18.7485 19.1667 17.7849C19.8107 16.8212 20.1001 15.6639 19.9855 14.5106C19.871 13.3573 19.3596 12.2795 18.5386 11.4614C18.0153 10.9384 17.3826 10.5379 16.6859 10.2888C15.9893 10.0397 15.246 9.94821 14.5098 10.0208C13.7735 10.0935 13.0625 10.3284 12.4279 10.7088C11.7933 11.0892 11.251 11.6056 10.84 12.2207C10.4289 12.8358 10.1594 13.5345 10.0507 14.2663C9.94208 14.9981 9.99701 15.7449 10.2117 16.453C10.4263 17.161 10.7952 17.8127 11.2919 18.361C11.7886 18.9093 12.4007 19.3407 13.0841 19.6241ZM9.54816 9.54819C10.2641 8.83224 11.1141 8.26433 12.0495 7.87686C12.9849 7.4894 13.9875 7.28996 15 7.28996C16.0125 7.28996 17.0151 7.4894 17.9505 7.87686C18.8859 8.26433 19.7359 8.83224 20.4518 9.54819C21.1678 10.2641 21.7357 11.1141 22.1232 12.0495C22.5106 12.9849 22.71 13.9875 22.71 15C22.71 16.0125 22.5106 17.0151 22.1232 17.9505C21.7357 18.8859 21.1678 19.7359 20.4518 20.4518C19.0059 21.8977 17.0448 22.71 15 22.71C12.9552 22.71 10.9941 21.8977 9.54816 20.4518C8.10229 19.0059 7.28998 17.0448 7.28998 15C7.28998 12.9552 8.10229 10.9941 9.54816 9.54819ZM24.42 8.43819C24.5974 8.27083 24.7394 8.06956 24.8377 7.84633C24.9359 7.62309 24.9884 7.38242 24.9919 7.13853C24.9955 6.89467 24.9501 6.65256 24.8584 6.42656C24.7667 6.20055 24.6306 5.99524 24.4581 5.82278C24.2856 5.65031 24.0804 5.51422 23.8544 5.42253C23.6284 5.33084 23.3862 5.28542 23.1424 5.28897C22.8985 5.29253 22.6578 5.34499 22.4346 5.44322C22.2114 5.54146 22.0101 5.68349 21.8427 5.86092C21.5172 6.20595 21.3391 6.66426 21.3459 7.13853C21.3528 7.61282 21.5444 8.06575 21.8798 8.40115C22.2151 8.73656 22.6681 8.92804 23.1424 8.93495C23.6166 8.94186 24.075 8.76367 24.42 8.43819Z" fill="#F8F8F8" fill-opacity="1.000000" fill-rule="evenodd"/>
</svg>
