<svg width="37.000000" height="26.000000" viewBox="0 0 37 26" fill="none" xmlns="http://www.w3.org/2000/svg" xmlns:xlink="http://www.w3.org/1999/xlink">
	<desc>
			Created with Pixso.
	</desc>
	<defs/>
	<path d="M37 12.888C37 12.7999 37 12.6999 36.9959 12.5839C36.9918 12.2598 36.9835 11.8957 36.9752 11.5075C36.9422 10.3912 36.8844 9.27885 36.7935 8.23053C36.6696 6.78609 36.4879 5.58171 36.2402 4.67744C35.9787 3.73375 35.4662 2.87308 34.7538 2.18146C34.0415 1.48984 33.1543 0.991486 32.1809 0.736221C31.0123 0.432129 28.7245 0.24408 25.5036 0.128036C23.9715 0.0720215 22.3322 0.0360107 20.6927 0.0160065C20.1187 0.00799561 19.5861 0.0039978 19.107 0L17.893 0C17.4139 0.0039978 16.8813 0.00799561 16.3073 0.0160065C14.6678 0.0360107 13.0285 0.0720215 11.4964 0.128036C8.27545 0.248077 5.98358 0.436127 4.81909 0.736221C3.84537 0.99086 2.95779 1.489 2.24536 2.18071C1.53293 2.87244 1.02063 3.73343 0.759827 4.67744C0.507935 5.58171 0.330353 6.78609 0.206482 8.23053C0.115631 9.27885 0.0578003 10.3912 0.0247803 11.5075C0.0123901 11.8957 0.00827026 12.2598 0.00411987 12.5839C0.00411987 12.6999 0 12.7999 0 12.888L0 13.112C0 13.2001 0 13.3001 0.00411987 13.4161C0.00827026 13.7402 0.01651 14.1043 0.0247803 14.4925C0.0578003 15.6088 0.115631 16.7211 0.206482 17.7695C0.330353 19.2139 0.512054 20.4183 0.759827 21.3226C1.28839 23.2392 2.84106 24.7516 4.81909 25.2638C5.98358 25.5679 8.27545 25.7559 11.4964 25.872C13.0285 25.928 14.6678 25.964 16.3073 25.984C16.8813 25.992 17.4139 25.996 17.893 26L19.107 26C19.5861 25.996 20.1187 25.992 20.6927 25.984C22.3322 25.964 23.9715 25.928 25.5036 25.872C28.7245 25.7519 31.0164 25.5639 32.1809 25.2638C34.1589 24.7516 35.7116 23.2431 36.2402 21.3226C36.4921 20.4183 36.6696 19.2139 36.7935 17.7695C36.8844 16.7211 36.9422 15.6088 36.9752 14.4925C36.9876 14.1043 36.9918 13.7402 36.9959 13.4161C36.9959 13.3001 37 13.2001 37 13.112L37 12.888ZM34.0268 13.096C34.0268 13.1801 34.0268 13.2721 34.0226 13.3801C34.0185 13.6922 34.0103 14.0363 34.002 14.4084C33.9731 15.4728 33.9153 16.5371 33.8286 17.5254C33.7171 18.8138 33.5602 19.8701 33.3661 20.5783C33.11 21.5026 32.3585 22.2348 31.4087 22.4789C30.5415 22.703 28.357 22.883 25.3879 22.9911C23.8848 23.0471 22.2661 23.0831 20.6515 23.1031C20.0857 23.1111 19.5613 23.1151 19.0905 23.1151L17.9095 23.1151L16.3485 23.1031C14.7339 23.0831 13.1193 23.0471 11.6121 22.9911C8.64297 22.879 6.45435 22.703 5.59131 22.4789C4.64151 22.2308 3.88995 21.5026 3.63394 20.5783C3.43985 19.8701 3.28293 18.8138 3.17142 17.5254C3.08472 16.5371 3.03104 15.4728 2.99799 14.4084C2.9856 14.0363 2.98148 13.6882 2.97736 13.3801C2.97736 13.2721 2.97321 13.1761 2.97321 13.096L2.97321 12.904C2.97321 12.8199 2.97321 12.7279 2.97736 12.6199C2.98148 12.3078 2.98975 11.9637 2.99799 11.5916C3.02689 10.5272 3.08472 9.46291 3.17142 8.47461C3.28293 7.1862 3.43985 6.12988 3.63394 5.42166C3.88995 4.49739 4.64151 3.76515 5.59131 3.52109C6.4585 3.29701 8.64297 3.11696 11.6121 3.00893C13.1152 2.95291 14.7339 2.9169 16.3485 2.8969C16.9143 2.88889 17.4387 2.88489 17.9095 2.88489L19.0905 2.88489L20.6515 2.8969C22.2661 2.9169 23.8807 2.95291 25.3879 3.00893C28.357 3.12096 30.5457 3.29701 31.4087 3.52109C32.3585 3.76917 33.11 4.49739 33.3661 5.42166C33.5602 6.12988 33.7171 7.1862 33.8286 8.47461C33.9153 9.46291 33.969 10.5272 34.002 11.5916C34.0144 11.9637 34.0185 12.3118 34.0226 12.6199C34.0226 12.7279 34.0268 12.8239 34.0268 12.904L34.0268 13.096ZM14.8248 18.3616L24.4051 12.96L14.8248 7.63835L14.8248 18.3616Z" fill="#F8F8F8" fill-opacity="1.000000" fill-rule="nonzero"/>
</svg>
